<svg width="480" height="64" viewBox="0 0 480 64" fill="none" xmlns="http://www.w3.org/2000/svg">
<path fill-rule="evenodd" clip-rule="evenodd" d="M39.5396 28.2271H0.552734V42.5851C0.552734 53.3799 9.25142 62.0786 20.0462 62.0786C30.8409 62.0786 39.5396 53.3799 39.5396 42.5851V28.2271ZM12.8147 37.5546H27.2776V41.7467H22.1423V50.8646H17.9501V41.7467H12.8147V37.5546Z" fill="url(#paint0_linear_2410_88088)"/>
<path fill-rule="evenodd" clip-rule="evenodd" d="M5.47852 16.6984C5.47852 8.52376 12.0811 1.92114 20.2558 1.92114C28.4305 1.92114 35.0331 8.52376 35.0331 16.6984V24.5587H27.1728V16.6984C27.1728 12.9255 24.1335 9.7814 20.2558 9.7814C16.3781 9.7814 13.3388 12.8207 13.3388 16.6984V24.5587H5.47852V16.6984Z" fill="url(#paint1_linear_2410_88088)"/>
<path d="M83.5509 12.6115V60.2971H75.3762V12.6115H83.5509ZM98.433 12.6115V19.1093H60.4941V12.6115H98.433ZM116.459 60.9259C113.839 60.9259 111.429 60.5067 109.333 59.6683C107.236 58.8299 105.455 57.5722 103.988 56.0002C102.52 54.4281 101.368 52.6465 100.634 50.5504C99.9003 48.4543 99.481 46.1486 99.481 43.7382V42.4805C99.481 39.7556 99.9003 37.2403 100.739 34.9347C101.577 32.7338 102.625 30.7425 104.092 29.1705C105.56 27.5984 107.236 26.3408 109.228 25.5024C111.219 24.6639 113.315 24.2447 115.621 24.2447C118.136 24.2447 120.337 24.6639 122.223 25.5024C124.11 26.3408 125.682 27.5984 126.94 29.0657C128.197 30.6377 129.14 32.4194 129.769 34.5155C130.398 36.6115 130.712 38.9172 130.712 41.5373V44.891H103.254V39.2316H122.852V38.6028C122.852 37.1355 122.538 35.8779 122.014 34.6203C121.49 33.3626 120.756 32.4194 119.708 31.581C118.66 30.8473 117.298 30.4281 115.516 30.4281C114.258 30.4281 113.001 30.7425 112.057 31.2665C111.009 31.7906 110.171 32.629 109.542 33.677C108.913 34.7251 108.389 35.9827 107.97 37.45C107.656 38.9172 107.446 40.5941 107.446 42.3757V43.6334C107.446 45.2054 107.656 46.6727 108.075 47.9303C108.494 49.1879 109.123 50.3408 109.961 51.3888C110.8 52.3321 111.848 53.1705 113.001 53.6945C114.154 54.2185 115.516 54.5329 116.983 54.5329C118.87 54.5329 120.547 54.1137 122.014 53.3801C123.481 52.6465 124.739 51.4936 125.892 50.1312L130.084 54.1137C129.35 55.2665 128.302 56.3146 127.149 57.3626C125.892 58.4107 124.424 59.1443 122.643 59.7731C120.756 60.6115 118.765 60.9259 116.459 60.9259ZM156.809 53.1705V36.2971C156.809 35.0395 156.599 33.9914 156.075 33.0482C155.656 32.105 154.922 31.3714 153.979 30.9521C153.036 30.4281 151.883 30.2185 150.52 30.2185C149.263 30.2185 148.11 30.4281 147.167 30.8473C146.223 31.2665 145.49 31.8954 144.966 32.629C144.442 33.3626 144.127 34.201 144.127 35.1443H136.372C136.372 33.7818 136.686 32.4194 137.42 31.0569C138.049 29.7993 139.097 28.5417 140.354 27.5984C141.612 26.5504 143.184 25.712 144.966 25.1879C146.747 24.5591 148.739 24.3495 151.044 24.3495C153.664 24.3495 156.075 24.7687 158.171 25.712C160.267 26.6552 161.839 27.9128 163.097 29.7993C164.25 31.581 164.878 33.8866 164.878 36.5067V52.2272C164.878 53.7993 164.983 55.2666 165.193 56.629C165.402 57.8866 165.822 59.0395 166.241 59.9827V60.2971H158.171C157.752 59.4587 157.542 58.4107 157.333 57.0482C156.913 55.6858 156.809 54.4281 156.809 53.1705ZM157.961 38.7076L158.066 43.6334H152.407C150.94 43.6334 149.682 43.7382 148.529 44.0526C147.376 44.2622 146.538 44.6814 145.699 45.2054C144.861 45.7294 144.442 46.3583 144.023 47.0919C143.603 47.8255 143.499 48.6639 143.499 49.6072C143.499 50.5504 143.708 51.3888 144.127 52.2272C144.547 52.9609 145.175 53.5897 146.014 54.0089C146.852 54.4281 147.9 54.6377 149.053 54.6377C150.625 54.6377 152.092 54.3233 153.245 53.6945C154.503 53.0657 155.446 52.2273 156.18 51.284C156.913 50.3408 157.228 49.3976 157.333 48.4543L159.848 51.9128C159.638 52.8561 159.114 53.7993 158.485 54.8473C157.857 55.8954 157.018 56.8386 155.97 57.7818C154.922 58.7251 153.769 59.4587 152.302 60.0875C150.94 60.7163 149.263 60.9259 147.481 60.9259C145.175 60.9259 143.079 60.5067 141.298 59.5635C139.516 58.6203 138.049 57.3626 137.001 55.7906C135.953 54.2185 135.429 52.4369 135.429 50.3408C135.429 48.4543 135.743 46.7775 136.477 45.3102C137.21 43.843 138.258 42.5853 139.621 41.6421C140.983 40.6989 142.765 39.9652 144.756 39.4412C146.747 38.9172 149.053 38.6028 151.673 38.6028H157.961V38.7076ZM180.809 32.105V60.2971H172.948V24.8735H180.389L180.809 32.105ZM179.551 41.2229H176.826C176.826 38.8124 177.14 36.5067 177.769 34.4107C178.398 32.3146 179.237 30.5329 180.494 28.9609C181.647 27.3888 183.114 26.236 184.896 25.3976C186.678 24.5591 188.669 24.1399 190.974 24.1399C192.547 24.1399 194.014 24.3495 195.376 24.8735C196.739 25.2927 197.892 26.0264 198.835 27.0744C199.883 28.1224 200.616 29.3801 201.14 30.9521C201.664 32.5242 201.979 34.4107 201.979 36.6115V60.2971H194.119V37.3451C194.119 35.6683 193.909 34.3059 193.28 33.2578C192.756 32.3146 192.023 31.581 191.079 31.1617C190.136 30.7425 188.983 30.5329 187.726 30.5329C186.258 30.5329 185.001 30.8473 183.953 31.3713C182.905 31.8954 182.066 32.7338 181.437 33.677C180.809 34.6203 180.285 35.7731 179.97 37.0307C179.761 38.3932 179.551 39.7556 179.551 41.2229ZM201.56 39.1268L197.892 39.9652C197.892 37.8692 198.206 35.7731 198.73 33.8866C199.359 32.0002 200.197 30.3233 201.35 28.8561C202.503 27.3888 203.97 26.236 205.752 25.3976C207.429 24.5591 209.42 24.1399 211.726 24.1399C213.507 24.1399 215.184 24.3495 216.547 24.8735C218.014 25.3976 219.167 26.1312 220.215 27.1792C221.263 28.2272 221.996 29.5897 222.52 31.2665C223.044 32.9434 223.359 34.9347 223.359 37.3451V60.2971H215.394V37.3451C215.394 35.5635 215.184 34.201 214.555 33.153C214.031 32.2098 213.298 31.4762 212.354 31.1617C211.411 30.7425 210.258 30.5329 209.001 30.5329C207.743 30.5329 206.695 30.7425 205.752 31.2665C204.809 31.6858 204.075 32.3146 203.446 33.153C202.817 33.9914 202.293 34.8299 201.979 35.8779C201.664 36.8211 201.56 37.974 201.56 39.1268ZM257.105 12.6115V60.2971H248.931V12.6115H257.105ZM276.599 33.4674V39.9652H255.009V33.4674H276.599ZM279.219 12.6115V19.1093H254.905V12.6115H279.219ZM293.472 24.8735V60.2971H285.507V24.8735H293.472ZM284.983 15.546C284.983 14.3932 285.402 13.3451 286.136 12.6115C286.974 11.7731 288.023 11.3539 289.49 11.3539C290.852 11.3539 292.005 11.7731 292.843 12.6115C293.682 13.45 294.101 14.3932 294.101 15.546C294.101 16.6989 293.682 17.7469 292.843 18.4805C292.005 19.3189 290.957 19.6334 289.49 19.6334C288.023 19.6334 286.974 19.2141 286.136 18.4805C285.402 17.7469 284.983 16.6989 284.983 15.546ZM309.926 32.4194V60.2971H302.066V24.8735H309.507L309.926 32.4194ZM308.564 41.2229H306.049C306.049 38.7076 306.468 36.4019 307.097 34.3059C307.83 32.2098 308.774 30.4281 310.031 28.8561C311.289 27.3888 312.756 26.236 314.433 25.3976C316.11 24.5591 318.101 24.1399 320.197 24.1399C321.874 24.1399 323.446 24.3495 324.809 24.8735C326.171 25.2927 327.429 26.1312 328.372 27.1792C329.42 28.2272 330.154 29.5897 330.678 31.2665C331.202 32.9434 331.516 34.9347 331.516 37.3451V60.2971H323.551V37.3451C323.551 35.6683 323.341 34.3058 322.817 33.3626C322.293 32.3146 321.664 31.6858 320.721 31.2665C319.778 30.8473 318.625 30.6377 317.263 30.6377C315.9 30.6377 314.747 30.9521 313.595 31.4762C312.442 32.0002 311.603 32.8386 310.87 33.7818C310.136 34.7251 309.612 35.8779 309.193 37.1355C308.774 38.3932 308.564 39.7556 308.564 41.2229ZM359.394 53.1705V36.2971C359.394 35.0395 359.184 33.9914 358.66 33.0482C358.241 32.105 357.507 31.3714 356.564 30.9521C355.621 30.4281 354.468 30.2185 353.105 30.2185C351.848 30.2185 350.695 30.4281 349.752 30.8473C348.809 31.2665 348.075 31.8954 347.551 32.629C347.027 33.3626 346.712 34.201 346.712 35.1443H338.852C338.852 33.7818 339.167 32.4194 339.9 31.0569C340.529 29.7993 341.577 28.5417 342.835 27.5984C344.092 26.5504 345.664 25.712 347.446 25.1879C349.228 24.5591 351.219 24.3495 353.525 24.3495C356.145 24.3495 358.555 24.7687 360.651 25.712C362.747 26.6552 364.319 27.9128 365.577 29.7993C366.73 31.581 367.359 33.8866 367.359 36.5067V52.2272C367.359 53.7993 367.464 55.2666 367.673 56.629C367.883 57.8866 368.302 59.0395 368.721 59.9827V60.2971H360.651C360.232 59.4587 360.023 58.4107 359.813 57.0482C359.499 55.6858 359.394 54.4281 359.394 53.1705ZM360.547 38.7076L360.651 43.6334H354.992C353.525 43.6334 352.267 43.7382 351.114 44.0526C349.961 44.2622 349.123 44.6814 348.285 45.2054C347.446 45.7294 347.027 46.3583 346.608 47.0919C346.188 47.8255 346.084 48.6639 346.084 49.6072C346.084 50.5504 346.293 51.3888 346.712 52.2272C347.132 52.9609 347.761 53.5897 348.599 54.0089C349.437 54.4281 350.485 54.6377 351.638 54.6377C353.21 54.6377 354.678 54.3233 355.83 53.6945C357.088 53.0657 358.031 52.2273 358.765 51.284C359.499 50.3408 359.813 49.3976 359.918 48.4543L362.433 51.9128C362.223 52.8561 361.699 53.7993 361.071 54.8473C360.442 55.8954 359.603 56.8386 358.555 57.7818C357.507 58.7251 356.354 59.4587 354.887 60.0875C353.525 60.7163 351.848 60.9259 350.066 60.9259C347.76 60.9259 345.664 60.5067 343.883 59.5635C342.101 58.6203 340.634 57.3626 339.586 55.7906C338.538 54.2185 338.014 52.4369 338.014 50.3408C338.014 48.4543 338.328 46.7775 339.062 45.3102C339.795 43.843 340.843 42.5853 342.206 41.6421C343.568 40.6989 345.35 39.9652 347.341 39.4412C349.333 38.9172 351.638 38.6028 354.258 38.6028H360.547V38.7076ZM383.498 32.4194V60.2971H375.638V24.8735H383.079L383.498 32.4194ZM382.031 41.2229H379.516C379.516 38.7076 379.935 36.4019 380.564 34.3059C381.298 32.2098 382.241 30.4281 383.498 28.8561C384.756 27.3888 386.223 26.236 387.9 25.3976C389.577 24.5591 391.568 24.1399 393.664 24.1399C395.341 24.1399 396.913 24.3495 398.276 24.8735C399.638 25.2927 400.896 26.1312 401.839 27.1792C402.887 28.2272 403.621 29.5897 404.145 31.2665C404.669 32.9434 404.983 34.9347 404.983 37.3451V60.2971H397.018V37.3451C397.018 35.6683 396.809 34.3058 396.285 33.3626C395.761 32.3146 395.132 31.6858 394.188 31.2665C393.245 30.8473 392.092 30.6377 390.73 30.6377C389.368 30.6377 388.215 30.9521 387.062 31.4762C385.909 32.0002 385.071 32.8386 384.337 33.7818C383.603 34.7251 383.079 35.8779 382.66 37.1355C382.241 38.3932 382.031 39.7556 382.031 41.2229ZM427.411 54.6377C428.669 54.6377 429.822 54.4281 430.87 53.9041C431.918 53.3801 432.756 52.6465 433.385 51.7032C434.014 50.76 434.433 49.712 434.433 48.5591H441.874C441.874 50.8648 441.14 52.9609 439.883 54.8473C438.625 56.7338 436.843 58.201 434.643 59.3539C432.442 60.4019 430.136 61.0307 427.516 61.0307C424.791 61.0307 422.485 60.6115 420.389 59.6683C418.398 58.7251 416.721 57.4674 415.359 55.7906C413.996 54.1137 413.053 52.2272 412.319 50.1312C411.691 48.0351 411.376 45.7294 411.376 43.2141V42.0613C411.376 39.6508 411.691 37.3452 412.319 35.1443C412.948 32.9434 413.996 31.0569 415.359 29.4849C416.721 27.9128 418.398 26.5504 420.389 25.6072C422.381 24.6639 424.791 24.2447 427.411 24.2447C430.241 24.2447 432.756 24.7687 434.852 25.9216C436.948 27.0744 438.625 28.6465 439.883 30.6377C441.14 32.629 441.769 34.9347 441.769 37.5548H434.328C434.223 36.2971 433.909 35.0395 433.385 33.9914C432.861 32.9434 432.023 32.105 430.974 31.4762C429.926 30.8473 428.669 30.5329 427.306 30.5329C425.734 30.5329 424.372 30.8473 423.324 31.4762C422.276 32.105 421.437 32.9434 420.913 34.0962C420.285 35.1443 419.865 36.4019 419.656 37.7644C419.446 39.1268 419.341 40.4893 419.341 41.9565V43.1093C419.341 44.5766 419.446 46.0438 419.656 47.4063C419.865 48.7687 420.285 50.0264 420.913 51.0744C421.542 52.1224 422.381 52.9609 423.429 53.6945C424.477 54.3233 425.839 54.6377 427.411 54.6377ZM463.568 60.9259C460.948 60.9259 458.538 60.5067 456.442 59.6683C454.346 58.8299 452.564 57.5722 451.097 56.0002C449.629 54.4281 448.477 52.6465 447.743 50.5504C447.009 48.4543 446.59 46.1486 446.59 43.7382V42.4805C446.59 39.7556 447.009 37.2403 447.848 34.9347C448.686 32.629 449.734 30.7425 451.202 29.1705C452.669 27.5984 454.346 26.3408 456.337 25.5024C458.328 24.6639 460.424 24.2447 462.73 24.2447C465.245 24.2447 467.446 24.6639 469.333 25.5024C471.219 26.3408 472.791 27.5984 474.049 29.0657C475.306 30.6377 476.25 32.4194 476.878 34.5155C477.507 36.6115 477.822 38.9172 477.822 41.5373V44.891H450.468V39.2316H470.066V38.6028C470.066 37.1355 469.752 35.8779 469.228 34.6203C468.704 33.3626 467.97 32.4194 466.922 31.581C465.874 30.8473 464.512 30.4281 462.73 30.4281C461.472 30.4281 460.215 30.7425 459.271 31.2665C458.223 31.7906 457.385 32.629 456.756 33.677C456.127 34.7251 455.603 35.9827 455.184 37.45C454.87 38.9172 454.66 40.5941 454.66 42.3757V43.6334C454.66 45.2054 454.87 46.6727 455.289 47.9303C455.708 49.1879 456.337 50.3408 457.175 51.3888C458.014 52.3321 459.062 53.1705 460.215 53.6945C461.367 54.2185 462.73 54.5329 464.197 54.5329C466.084 54.5329 467.761 54.1137 469.228 53.3801C470.695 52.6465 471.953 51.4936 473.105 50.1312L477.298 54.1137C476.564 55.2665 475.516 56.3146 474.363 57.3626C473.105 58.4107 471.638 59.1443 469.857 59.7731C467.97 60.6115 465.979 60.9259 463.568 60.9259Z" fill="url(#paint2_linear_2410_88088)"/>
<defs>
<linearGradient id="paint0_linear_2410_88088" x1="20.0462" y1="28.2271" x2="20.0462" y2="62.0786" gradientUnits="userSpaceOnUse">
<stop stop-color="#1D65DC"/>
<stop offset="1" stop-color="#0A4BB3"/>
</linearGradient>
<linearGradient id="paint1_linear_2410_88088" x1="20.2558" y1="1.92114" x2="20.2558" y2="24.5587" gradientUnits="userSpaceOnUse">
<stop stop-color="#1D65DC"/>
<stop offset="1" stop-color="#0A4BB3"/>
</linearGradient>
<linearGradient id="paint2_linear_2410_88088" x1="269.158" y1="11.3539" x2="269.158" y2="61.0307" gradientUnits="userSpaceOnUse">
<stop stop-color="#1D65DC"/>
<stop offset="1" stop-color="#0A4BB3"/>
</linearGradient>
</defs>
</svg>
